<svg version="1.1" id="Layer_1" xmlns="http://www.w3.org/2000/svg" xmlns:xlink="http://www.w3.org/1999/xlink" x="0px" y="0px" style="enable-background:new 0 0 566 328;" xml:space="preserve" viewBox="71.25 90.99 423.05 145.99"> <style type="text/css"> 	.st0{fill:#334155;} 	.st1{fill:#334155;} 	.st2{fill:#334155;} </style> <g> 	<g> 		<path class="st0" d="M262.8,152.2c2.8-0.6,8.6-1,14-1c6.6,0,10.7,0.7,14.2,2.7c3.4,1.8,5.7,5.1,5.7,9.5c0,4.2-2.5,8.2-7.9,10.2 			v0.2c5.5,1.4,9.5,5.6,9.5,11.8c0,4.4-2,7.8-5,10.2c-3.5,2.8-9.3,4.4-18.9,4.4c-5.3,0-9.3-0.4-11.7-0.7V152.2z M273.5,170.5h3.5 			c5.7,0,8.7-2.4,8.7-5.9c0-3.6-2.8-5.6-7.7-5.6c-2.4,0-3.7,0.2-4.6,0.3V170.5z M273.5,191.7c1,0.2,2.3,0.2,4.2,0.2 			c4.9,0,9.3-1.9,9.3-7c0-4.8-4.3-6.7-9.7-6.7h-3.7V191.7z"></path> 		<path class="st0" d="M305.7,152.2c3.5-0.6,8.6-1,14.4-1c7.1,0,12.1,1.1,15.5,3.8c2.9,2.3,4.4,5.6,4.4,10.1 			c0,6.1-4.3,10.3-8.5,11.8v0.2c3.3,1.3,5.2,4.5,6.4,8.9c1.5,5.4,2.9,11.7,3.9,13.5h-11.1c-0.7-1.4-1.9-5.2-3.3-11.2 			c-1.3-6-3.3-7.6-7.8-7.7h-3.2v18.8h-10.7V152.2z M316.5,172.8h4.2c5.4,0,8.6-2.7,8.6-6.9c0-4.4-3-6.6-8-6.7 			c-2.6,0-4.1,0.2-4.9,0.4V172.8z"></path> 		<path class="st0" d="M358.8,151.5v47.9h-10.8v-47.9H358.8z"></path> 		<path class="st0" d="M412,175c0,15.7-9.5,25.2-23.5,25.2c-14.2,0-22.6-10.8-22.6-24.4c0-14.3,9.2-25.1,23.3-25.1 			C404,150.7,412,161.7,412,175z M377.4,175.6c0,9.4,4.4,16,11.7,16c7.3,0,11.5-6.9,11.5-16.2c0-8.6-4.1-16-11.5-16 			C381.7,159.3,377.4,166.3,377.4,175.6z"></path> 		<path class="st0" d="M419.2,151.5h29.3v8.9H430v11h17.2v8.8H430v19.3h-10.8V151.5z"></path> 		<path class="st0" d="M467.7,199.5v-19.7l-15.1-28.3H465l4.9,11.5c1.5,3.4,2.5,6,3.7,9.2h0.1c1.1-3,2.2-5.8,3.6-9.2l4.8-11.5h12.2 			l-15.8,27.9v20H467.7z"></path> 	</g> </g> <g> 	<path class="st1" d="M172.4,158c-4.7-15.3-16.4-33.3-16.7-33.8c-2.9-3.9-5.8-7.4-8.7-10.7c-10.1-10.9-33.1-31-56.4-18.6 		c-16.5,8.8-19.8,27.6-19.3,43.5c0.5,13.6,4,26.9,10,39.1c2.9,5.9,6.5,12.8,10.2,18.1c13.4,17.9,28.2,29.4,36.3,33.9 		c6.7,3.7,12.6,6.1,17.8,7.4c1.3,0.3,2.6-0.3,3.2-1.6c6.6-15.2,1.2-42.1-2.2-55.5c-0.6-2.3,2.4-3.7,3.9-1.8 		c10.8,14.2,13.7,36.7,14.3,51.3c0.1,2.4,3.1,3.5,4.7,1.6c0.7-0.8,1.3-1.7,1.9-2.7c3.3-5.8,5.9-13.9,7.1-25.1 		C179.1,194.6,178.3,177.6,172.4,158z"></path> 	<path class="st1" d="M230.6,94.9c-23.3-12.4-46.3,7.7-56.4,18.6c-2.9,3.3-5.8,6.8-8.7,10.7c4,6.7,11.3,19.6,14.9,31.4l0,0 		c6.1,20.1,7.2,38.2,6.1,48.4c-0.7,6.5-1.8,12.2-3.4,17.3l0,0c0,0-0.3,0.9-0.7,2.1c0,0,0,0,0,0.1c-0.4,1.1-0.9,2.5-1.4,3.6 		c-1,2.2,0.3,4.8,2.6,4.8c2.3,0,8.7-1.3,15.9-6.3c8.3-5.9,19.7-16,30.2-30c3.7-5.4,7.3-12.2,10.2-18.1c5.9-12.2,9.5-25.5,10-39.1 		C250.4,122.5,247.1,103.6,230.6,94.9z"></path> 	<path class="st1" d="M172.4,158c-4.7-15.3-16.4-33.3-16.7-33.8c-2.9-3.9-5.8-7.4-8.7-10.7c-10.1-10.9-33.1-31-56.4-18.6 		c-16.5,8.8-19.8,27.6-19.3,43.5c0.5,13.6,4,26.9,10,39.1c2.9,5.9,6.5,12.8,10.2,18.1c13.4,17.9,28.2,29.4,36.3,33.9 		c6.7,3.7,12.6,6.1,17.8,7.4c1.3,0.3,2.6-0.3,3.2-1.6c6.6-15.2,1.2-42.1-2.2-55.5c-0.6-2.3,2.4-3.7,3.9-1.8 		c10.8,14.2,13.7,36.7,14.3,51.3c0.1,2.4,3.1,3.5,4.7,1.6c0.7-0.8,1.3-1.7,1.9-2.7c3.3-5.8,5.9-13.9,7.1-25.1 		C179.1,194.6,178.3,177.6,172.4,158z"></path> 	<path class="st2" d="M230.6,94.9c-23.3-12.4-46.3,7.7-56.4,18.6c-2.9,3.3-5.8,6.8-8.7,10.7c4,6.7,11.3,19.6,14.9,31.4l0,0 		c6.1,20.1,7.2,38.2,6.1,48.4c-0.7,6.5-1.8,12.2-3.4,17.3l0,0c0,0-0.3,0.9-0.7,2.1c0,0,0,0,0,0.1c-0.4,1.1-0.9,2.5-1.4,3.6 		c-1,2.2,0.3,4.8,2.6,4.8c2.3,0,8.7-1.3,15.9-6.3c8.3-5.9,19.7-16,30.2-30c3.7-5.4,7.3-12.2,10.2-18.1c5.9-12.2,9.5-25.5,10-39.1 		C250.4,122.5,247.1,103.6,230.6,94.9z"></path> </g> </svg>