<svg version="1.1" id="Layer_1" xmlns="http://www.w3.org/2000/svg" xmlns:xlink="http://www.w3.org/1999/xlink" x="0px" y="0px" style="enable-background:new 0 0 500 500;" xml:space="preserve" viewBox="38 167.1 421.9 142.3"> <style type="text/css"> 	.st0{fill:#334155;} </style> <g> 	<rect x="38" y="275.9" class="st0" width="33.5" height="33.5"></rect> 	<polygon class="st0" points="163.2,309.3 187.1,309.3 187.1,167.1 38,167.1 38,190.9 163.2,190.9 	"></polygon> 	<g> 		<path class="st0" d="M237.2,269.5v6.4h-10.6v33.4h-8V276H208v-6.4H237.2z"></path> 		<path class="st0" d="M263.6,309.3l-8.8-15.5H251v15.5h-8v-39.8H258c3.1,0,5.7,0.5,7.9,1.6s3.8,2.5,4.9,4.4 			c1.1,1.8,1.6,3.9,1.6,6.2c0,2.6-0.8,5-2.3,7.1c-1.5,2.1-3.8,3.6-6.8,4.4l9.5,16.1H263.6z M251,287.8h6.7c2.2,0,3.8-0.5,4.8-1.6 			c1.1-1,1.6-2.5,1.6-4.4c0-1.8-0.5-3.2-1.6-4.2c-1.1-1-2.7-1.5-4.8-1.5H251V287.8z"></path> 		<path class="st0" d="M304,301.7h-15.9l-2.6,7.6h-8.4l14.3-39.9h9.3l14.3,39.9h-8.4L304,301.7z M301.9,295.4l-5.8-16.7l-5.8,16.7 			H301.9z"></path> 		<path class="st0" d="M345.4,272c3.2,1.6,5.6,4,7.4,7c1.7,3,2.6,6.5,2.6,10.5c0,4-0.9,7.5-2.6,10.5c-1.7,3-4.2,5.3-7.4,6.9 			c-3.2,1.6-6.9,2.5-11,2.5h-13.9v-39.8h13.9C338.5,269.5,342.2,270.3,345.4,272z M343.8,299.1c2.3-2.3,3.4-5.5,3.4-9.6 			c0-4.1-1.1-7.4-3.4-9.7c-2.3-2.3-5.5-3.5-9.7-3.5h-5.6v26.3h5.6C338.3,302.5,341.5,301.4,343.8,299.1z"></path> 		<path class="st0" d="M369.3,276v10h13.4v6.3h-13.4v10.6h15.1v6.5h-23.1v-39.9h23.1v6.5H369.3z"></path> 		<path class="st0" d="M412.2,309.3l-8.8-15.5h-3.8v15.5h-8v-39.8h14.9c3.1,0,5.7,0.5,7.9,1.6s3.8,2.5,4.9,4.4 			c1.1,1.8,1.6,3.9,1.6,6.2c0,2.6-0.8,5-2.3,7.1c-1.5,2.1-3.8,3.6-6.8,4.4l9.5,16.1H412.2z M399.7,287.8h6.7c2.2,0,3.8-0.5,4.8-1.6 			c1.1-1,1.6-2.5,1.6-4.4c0-1.8-0.5-3.2-1.6-4.2c-1.1-1-2.7-1.5-4.8-1.5h-6.7V287.8z"></path> 		<path class="st0" d="M427,301.2V295l18.6-26.7h9.3v26h5v7h-5v8.1h-8v-8.1H427z M447.5,276.8l-11.7,17.5h11.7V276.8z"></path> 	</g> </g> </svg>